<?xml version="1.0" encoding="UTF-8" standalone="no"?>
<svg
   xmlns:dc="http://purl.org/dc/elements/1.1/"
   xmlns:cc="http://creativecommons.org/ns#"
   xmlns:rdf="http://www.w3.org/1999/02/22-rdf-syntax-ns#"
   xmlns:svg="http://www.w3.org/2000/svg"
   xmlns="http://www.w3.org/2000/svg"
   xmlns:sodipodi="http://sodipodi.sourceforge.net/DTD/sodipodi-0.dtd"
   xmlns:inkscape="http://www.inkscape.org/namespaces/inkscape"
   viewBox="0 0 315.53 104.73"
   version="1.1"
   id="svg3759"
   sodipodi:docname="asfc.svg"
   inkscape:version="0.92.4 (5da689c313, 2019-01-14)">
  <metadata
     id="metadata3763">
    <rdf:RDF>
      <cc:Work
         rdf:about="">
        <dc:format>image/svg+xml</dc:format>
        <dc:type
           rdf:resource="http://purl.org/dc/dcmitype/StillImage" />
        <dc:title>Asset 1</dc:title>
      </cc:Work>
    </rdf:RDF>
  </metadata>
  <sodipodi:namedview
     pagecolor="#ffffff"
     bordercolor="#666666"
     borderopacity="1"
     objecttolerance="10"
     gridtolerance="10"
     guidetolerance="10"
     inkscape:pageopacity="0"
     inkscape:pageshadow="2"
     inkscape:window-width="1920"
     inkscape:window-height="1017"
     id="namedview3761"
     showgrid="false"
     inkscape:snap-bbox="false"
     inkscape:bbox-paths="false"
     inkscape:snap-bbox-midpoints="false"
     inkscape:snap-bbox-edge-midpoints="false"
     inkscape:bbox-nodes="false"
     inkscape:object-paths="false"
     inkscape:snap-intersection-paths="false"
     inkscape:object-nodes="false"
     inkscape:zoom="3.9553877"
     inkscape:cx="158.07871"
     inkscape:cy="33.095199"
     inkscape:window-x="-8"
     inkscape:window-y="-8"
     inkscape:window-maximized="1"
     inkscape:current-layer="svg3759" />
  <defs
     id="defs3741">
    <style
       id="style3739">.cls-1,.cls-2{fill-rule:evenodd;}.cls-2{fill:#fcca00;}.cls-3{fill:#fff;}</style>
  </defs>
  <title
     id="title3743">Asset 1</title>
  <path
     class="cls-1"
     d="M 55.83,15.24 H 8.51 A 8.14,8.14 0 0 0 0.4,23.35 v 64.81 a 8.14,8.14 0 0 0 8.11,8.11 h 106.64 a 8.14,8.14 0 0 0 8.11,-8.11 V 6.94 A 7,7 0 0 0 116.32,0 H 66.64 A 7,7 0 0 0 59.7,6.94 v 4.26 c 0.16,2.97 -1.95,4.04 -3.87,4.04 z"
     id="path3745"
     inkscape:connector-curvature="0"
     style="fill-rule:evenodd" />
  <path
     class="cls-2"
     d="m 68,22.72 h 47.69 a 8.2,8.2 0 0 1 8.18,8.18 v 65.32 a 8.2,8.2 0 0 1 -8.18,8.18 H 8.18 A 8.2,8.2 0 0 1 0,96.22 V 14.36 a 7,7 0 0 1 7,-7 h 50.07 a 7,7 0 0 1 7,7 v 4.3 C 63.9,21.65 66,22.72 68,22.72 Z"
     id="path3747"
     inkscape:connector-curvature="0"
     style="fill:#fcca00;fill-rule:evenodd" />
  <circle
     class="cls-3"
     cx="94.669998"
     cy="77.400002"
     r="21.17"
     id="circle3749"
     style="fill:#ffffff" />
  <path
     class="cls-1"
     d="m 105.66,73.93 c -6.6,-2.87 -13.4,-5.28 -20.09,-7.91 a 1,1 0 0 0 -1.25,1.29 L 92,87.86 a 1,1 0 0 0 1.89,0.13 l 2.75,-4.63 a 1,1 0 0 1 1.64,0 l 5,5.09 c 0.5,0.55 1.15,0.88 1.82,0.16 l 1.78,-1.85 a 1,1 0 0 0 0,-1.5 c -1.77,-1.83 -3.56,-3.49 -5.32,-5.34 a 1,1 0 0 1 0.24,-1.57 l 4.07,-2.53 a 1,1 0 0 0 -0.21,-1.89 z"
     id="path3751"
     inkscape:connector-curvature="0"
     style="fill-rule:evenodd" />
  <path
     class="cls-1"
     d="m 145.67692,73.024099 h -9 l -1.72,4.16 h -4.61 l 8.66,-19.42 h 4.44 l 8.68,19.42 h -4.72 l -1.72,-4.16 z m -1.42,-3.41 -3.08,-7.43 -3.08,7.43 z m 18.64,-7.57 a 6.14,6.14 0 0 1 4.48,1.66 6.6,6.6 0 0 1 1.71,4.94 v 8.54 h -4.33 v -7.92 a 3.89,3.89 0 0 0 -0.78,-2.65 2.85,2.85 0 0 0 -2.25,-0.87 3.44,3.44 0 0 0 -2.61,1 4.19,4.19 0 0 0 -1,3 v 7.38 h -4.33 v -14.86 h 4.13 v 1.75 a 5.74,5.74 0 0 1 2.14,-1.46 7.44,7.44 0 0 1 2.8,-0.51 z m 25.47,-5.44 v 20.59 h -4.13 v -1.72 a 5.71,5.71 0 0 1 -4.66,1.94 7.75,7.75 0 0 1 -3.81,-0.94 6.75,6.75 0 0 1 -2.68,-2.69 8.93,8.93 0 0 1 0,-8.1 6.75,6.75 0 0 1 2.68,-2.69 7.75,7.75 0 0 1 3.81,-0.94 5.68,5.68 0 0 1 4.47,1.8 v -7.25 z m -8,17.26 a 3.62,3.62 0 0 0 2.72,-1.12 4.73,4.73 0 0 0 0,-6 3.89,3.89 0 0 0 -5.47,0 4.73,4.73 0 0 0 0,6 3.65,3.65 0 0 0 2.75,1.12 z m 16.15,-9.6 a 4.81,4.81 0 0 1 2.09,-1.64 7.77,7.77 0 0 1 3,-0.55 v 4 l -1,-0.06 a 4,4 0 0 0 -2.91,1 4.2,4.2 0 0 0 -1.05,3.12 v 7 h -4.33 v -14.87 h 4.2 z m 14.68,13.18 a 9,9 0 0 1 -4.23,-1 7.32,7.32 0 0 1 -2.93,-2.73 8,8 0 0 1 0,-7.93 7.32,7.32 0 0 1 2.93,-2.73 9.55,9.55 0 0 1 8.45,0 7.34,7.34 0 0 1 2.91,2.73 8,8 0 0 1 0,7.93 7.35,7.35 0 0 1 -2.91,2.73 8.87,8.87 0 0 1 -4.22,1 z m 0,-3.55 a 3.6,3.6 0 0 0 2.73,-1.12 4.78,4.78 0 0 0 0,-6 3.61,3.61 0 0 0 -2.73,-1.12 3.65,3.65 0 0 0 -2.75,1.12 4.73,4.73 0 0 0 0,6 3.65,3.65 0 0 0 2.75,1.12 z m 11.05,-11.63 h 4.33 v 14.93 h -4.33 z m 2.16,-2.08 a 2.75,2.75 0 0 1 -1.94,-0.69 2.35,2.35 0 0 1 0,-3.44 2.75,2.75 0 0 1 1.94,-0.69 2.81,2.81 0 0 1 1.94,0.67 2.14,2.14 0 0 1 0.75,1.66 2.36,2.36 0 0 1 -0.75,1.79 2.71,2.71 0 0 1 -1.94,0.71 z m 21.39,-3.58 v 20.59 h -4.13 v -1.72 a 5.71,5.71 0 0 1 -4.66,1.94 7.75,7.75 0 0 1 -3.81,-0.94 6.75,6.75 0 0 1 -2.68,-2.7 8.93,8.93 0 0 1 0,-8.1 6.75,6.75 0 0 1 2.68,-2.69 7.75,7.75 0 0 1 3.81,-0.94 5.68,5.68 0 0 1 4.47,1.8 v -7.24 z m -8,17.26 a 3.62,3.62 0 0 0 2.72,-1.13 4.73,4.73 0 0 0 0,-6 3.89,3.89 0 0 0 -5.47,0 4.73,4.73 0 0 0 0,6 3.65,3.65 0 0 0 2.71,1.13 z"
     id="path3753"
     inkscape:connector-curvature="0"
     style="fill-rule:evenodd" />
  <path
     id="path3755"
     style="opacity:1;fill:#fcca00;fill-rule:evenodd;stroke-width:0.97949839"
     d="m 222.28248,83.810547 v 20.558593 h 4.15435 v -7.378906 c -0.0684,-1.092229 0.27595,-2.169001 0.95942,-3 0.66131,-0.687679 1.57062,-1.05105 2.50348,-1 0.80765,-0.05736 1.59816,0.260376 2.15869,0.869141 0.5521,0.75816 0.81959,1.701379 0.74955,2.650391 v 7.880854 h 4.15434 v -8.541011 c 0.12878,-1.811838 -0.4656,-3.598332 -1.64149,-4.939453 -1.15896,-1.135464 -2.70966,-1.734336 -4.29864,-1.660156 l -0.0375,-0.0293 c -0.87032,-0.0082 -1.73505,0.146671 -2.5522,0.458985 -0.74874,0.284851 -1.42958,0.73546 -1.99566,1.320312 v -7.189453 z m -10.66227,0.828125 c -1.63718,0.06826 -3.26108,0.499365 -4.75586,1.291016 -1.49777,0.82513 -2.74859,2.063678 -3.61655,3.580078 -1.75814,3.206661 -1.75814,7.142948 0,10.349609 0.86796,1.516395 2.11878,2.754945 3.61655,3.580075 1.58654,0.87311 3.35919,1.31772 5.15312,1.29102 l 0.0375,0.01 c 1.50787,0.0217 3.00387,-0.28193 4.39421,-0.89062 1.28397,-0.56942 2.41589,-1.45476 3.29986,-2.58008 l -2.77144,-2.660155 c -1.13935,1.474885 -2.8662,2.323585 -4.68278,2.300785 -1.07807,0.0203 -2.14149,-0.25291 -3.08812,-0.79102 -0.89304,-0.512889 -1.62914,-1.278176 -2.12121,-2.208984 -1.01343,-2.016726 -1.01343,-4.422727 0,-6.439453 0.49207,-0.930808 1.22817,-1.698047 2.12121,-2.210937 0.94663,-0.538109 2.01005,-0.809413 3.08812,-0.789063 1.81082,-0.02564 3.53502,0.809461 4.68278,2.269531 l 2.77144,-2.660156 c -0.88816,-1.109134 -2.01563,-1.983806 -3.2905,-2.550781 -1.55067,-0.66468 -3.20112,-0.958883 -4.83831,-0.890625 z m 84.67231,4.535156 c -1.31572,0 -2.63145,0.320005 -3.83766,0.957031 -1.14099,0.634618 -2.09209,1.586545 -2.74521,2.75 -0.66594,1.216298 -0.99789,2.600162 -0.95942,4 -0.029,1.405197 0.32076,2.790792 1.00814,4.000001 0.68941,1.17798 1.68825,2.12388 2.87825,2.72852 1.33293,0.68392 2.80379,1.0267 4.28926,1 2.21672,0.1587 4.3853,-0.7257 5.91017,-2.41016 l -2.20741,-2.500001 c -0.45475,0.474261 -0.99652,0.849911 -1.59279,1.101561 -0.63567,0.24315 -1.30926,0.36141 -1.98629,0.34961 -0.96322,0.0374 -1.91333,-0.24334 -2.71523,-0.80078 -0.71382,-0.517415 -1.20815,-1.301303 -1.38103,-2.189454 h 10.84216 c 0.0511,-0.72 0.0769,-1.106826 0.0769,-1.160156 l -0.10681,-0.08008 c 0.0335,-1.427855 -0.29758,-2.839195 -0.95942,-4.089844 -0.62506,-1.149188 -1.55342,-2.085735 -2.67587,-2.699219 -1.20623,-0.637026 -2.52194,-0.957031 -3.83767,-0.957031 z m -14.99651,0.01563 c -1.2093,-0.02731 -2.41221,0.180856 -3.5491,0.611328 -0.90468,0.331357 -1.70066,0.923494 -2.2936,1.708985 -0.52192,0.722641 -0.79902,1.605334 -0.78703,2.509765 -0.0611,0.950452 0.23974,1.889181 0.83575,2.611328 0.5424,0.601383 1.22777,1.042214 1.98629,1.279297 0.94414,0.282156 1.90585,0.496623 2.87825,0.640625 0.74944,0.07485 1.48801,0.231152 2.20554,0.46875 0.40742,0.109093 0.69913,0.482 0.71956,0.919922 0,0.906672 -0.87947,1.361332 -2.63839,1.361332 -0.89936,-0.004 -1.79333,-0.13941 -2.65714,-0.40039 -0.81286,-0.2157 -1.59177,-0.55251 -2.31235,-1.000004 L 274.28214,103 c 0.83953,0.53364 1.75654,0.92239 2.71523,1.15039 1.13758,0.30611 2.30863,0.45965 3.48351,0.45899 l 0.0281,0.0312 c 1.2367,0.0276 2.46913,-0.17715 3.63716,-0.60156 0.91371,-0.31936 1.72171,-0.9015 2.33109,-1.67968 0.52652,-0.70537 0.80742,-1.57511 0.79639,-2.468755 0.0536,-0.929498 -0.24177,-1.844973 -0.82451,-2.550781 -0.52045,-0.590721 -1.18292,-1.025496 -1.91883,-1.259766 -0.94603,-0.27669 -1.90719,-0.49414 -2.87825,-0.65039 -0.77839,-0.102591 -1.54658,-0.279311 -2.2936,-0.529297 -0.43481,-0.116766 -0.73377,-0.532234 -0.71957,-1 0.0177,-0.438335 0.27458,-0.827207 0.66147,-1 0.62461,-0.29806 1.30989,-0.432595 1.99567,-0.390625 1.44463,-0.01238 2.86786,0.369731 4.12624,1.109375 l 1.38103,-3.080079 c -0.77238,-0.468126 -1.61093,-0.805649 -2.48473,-1 -0.99214,-0.231176 -2.00592,-0.348109 -3.02254,-0.349609 z m -16.17143,0.04492 c -1.38793,0 -2.77549,0.329376 -4.05316,0.986328 -1.16229,0.61995 -2.13545,1.56385 -2.8108,2.728516 -1.34537,2.457358 -1.34537,5.474282 0,7.931638 0.67535,1.16467 1.64851,2.10856 2.8108,2.72852 1.25407,0.67392 2.64794,1.0173 4.05878,1 l -0.0375,0.0508 c 1.40818,0.021 2.79814,-0.32262 4.04754,-1 1.15435,-0.62426 2.12074,-1.56955 2.79205,-2.73047 1.34537,-2.457357 1.34537,-5.472329 0,-7.929687 -0.65354,-1.174236 -1.60587,-2.135859 -2.7527,-2.779297 -1.27768,-0.656952 -2.66711,-0.986328 -4.05504,-0.986328 z m -17.4419,0.0098 c -1.38794,0 -2.77549,0.329375 -4.05317,0.986328 -1.16228,0.61995 -2.13544,1.565803 -2.81078,2.730469 -1.34537,2.457358 -1.34537,5.472329 0,7.929685 0.67534,1.16468 1.6485,2.10857 2.81078,2.72852 1.25408,0.67392 2.64795,1.0173 4.05879,1 l -0.0299,0.041 c 1.40818,0.021 2.80002,-0.32262 4.04943,-1 1.15435,-0.62426 2.12073,-1.56955 2.79204,-2.73047 1.34537,-2.457364 1.34537,-5.472335 0,-7.929693 -0.65754,-1.171907 -1.61485,-2.130307 -2.76394,-2.769531 -1.27768,-0.656953 -2.66524,-0.986328 -4.05317,-0.986328 z m 67.80755,0.01563 c -0.98486,-0.01666 -1.96312,0.171053 -2.87825,0.550781 -0.80285,0.339622 -1.4976,0.906641 -2.00503,1.638672 l -0.0675,-1.978516 h -3.96321 v 14.849605 h 4.15435 v -6.999996 c -0.0855,-1.139549 0.27901,-2.2673 1.00814,-3.121093 0.76548,-0.708013 1.7707,-1.06802 2.79204,-1 l 0.95942,0.06055 z m -19.04406,3.259765 c 0.85366,-0.02365 1.68567,0.278248 2.34046,0.84961 0.64491,0.576515 1.06261,1.383422 1.17116,2.261718 h -7.05321 c 0.10268,-0.883073 0.52122,-1.694974 1.17116,-2.271484 0.66851,-0.564606 1.51047,-0.859348 2.37043,-0.830078 z m -31.31597,0.281208 c 0.98923,-0.02745 1.94293,0.386118 2.61966,1.138672 1.35426,1.750944 1.35426,4.249056 0,6 -0.67942,0.746267 -1.63315,1.154997 -2.61966,1.121097 v -0.0215 c -0.99199,0.0332 -1.95094,-0.37297 -2.63839,-1.119138 -1.37274,-1.7441 -1.37274,-4.2559 0,-6 0.68745,-0.746173 1.6464,-1.152381 2.63839,-1.119141 z m -17.4419,0.0293 c 0.98628,-0.03261 1.93953,0.373955 2.61966,1.119141 1.35425,1.750944 1.35425,4.249056 0,6 -0.67942,0.746268 -1.63316,1.154988 -2.61966,1.121088 l -0.0675,-0.0312 c -0.992,0.0332 -1.95095,-0.37297 -2.6384,-1.119135 -1.37273,-1.7441 -1.37273,-4.2559 0,-6 0.7083,-0.753859 1.69525,-1.151194 2.70586,-1.089844 z"
     inkscape:connector-curvature="0" />
  <text
     xml:space="preserve"
     style="font-style:normal;font-variant:normal;font-weight:600;font-stretch:normal;font-size:23.61066818px;line-height:1.25;font-family:'Adobe Hebrew';-inkscape-font-specification:'Adobe Hebrew, Semi-Bold';font-variant-ligatures:normal;font-variant-caps:normal;font-variant-numeric:normal;font-feature-settings:normal;text-align:start;letter-spacing:0px;word-spacing:0px;writing-mode:lr-tb;text-anchor:start;fill:#f50057;fill-opacity:1;stroke:none;stroke-width:1.1068157;"
     x="152.45837"
     y="88.304634"
     id="text4638"
     transform="scale(0.84804975,1.1791761)"><tspan
       sodipodi:role="line"
       x="152.45837"
       y="88.304634"
       id="tspan4640"
       style="font-style:normal;font-variant:normal;font-weight:600;font-stretch:normal;font-size:23.61066818px;font-family:'Adobe Hebrew';-inkscape-font-specification:'Adobe Hebrew, Semi-Bold';font-variant-ligatures:normal;font-variant-caps:normal;font-variant-numeric:normal;font-feature-settings:normal;text-align:start;writing-mode:lr-tb;text-anchor:start;stroke-width:1.1068157;fill:#f50057;fill-opacity:1;">SmbFile</tspan></text>
</svg>
